<svg xmlns="http://www.w3.org/2000/svg" width="15.92" height="15.793" viewBox="0 0 15.92 15.793">
  <path id="icon" d="M1186.635,902.635a1.579,1.579,0,1,0,1.579,1.58A1.577,1.577,0,0,0,1186.635,902.635Zm-9.469,1.58a1.576,1.576,0,1,0,1.571-1.58A1.577,1.577,0,0,0,1177.166,904.214Zm10.5-11.056h-9.594l1.768,3.735.1.213h5.544Zm-10.344-1.579h12.469l.126.758-3.049,5.536a1.57,1.57,0,0,1-1.381.813h-5.883l-.711,1.287-.024.095a.2.2,0,0,0,.2.2h9.144v1.579h-9.477a1.583,1.583,0,0,1-1.578-1.579,1.517,1.517,0,0,1,.2-.758l1.067-1.934-2.843-5.994H1174V890h2.582Z" transform="translate(-1174 -890)" fill="#d9981c"/>
</svg>
