<svg width="694" height="233" viewBox="0 0 694 233" fill="none" xmlns="http://www.w3.org/2000/svg">
<g clip-path="url(#clip0_62_2540)">
<path d="M668.292 232.528H25.7035C11.3096 232.528 0 219.765 0 203.521L0 29.4784C0 13.2343 11.3096 0.471191 25.7035 0.471191L668.292 0.471191C682.686 0.471191 693.995 13.2343 693.995 29.4784V203.521C693.995 219.765 682.686 232.528 668.292 232.528Z" fill="black"/>
<path d="M668.292 5.11234C680.115 5.11234 689.883 16.1351 689.883 29.4783V203.521C689.883 216.865 680.115 227.887 668.292 227.887H25.7035C13.8799 227.887 4.11256 216.865 4.11256 203.521V29.4783C4.11256 16.1351 13.8799 5.11234 25.7035 5.11234H668.292ZM668.292 0.471191L25.7035 0.471191C11.3096 0.471191 0 13.8145 0 29.4783L0 203.521C0 219.765 11.3096 232.528 25.7035 232.528H668.292C682.686 232.528 693.995 219.765 693.995 203.521V29.4783C693.995 13.8145 682.686 0.471191 668.292 0.471191Z" fill="#A6A6A6"/>
<path d="M243.669 59.6457C243.669 64.2868 242.641 68.3478 240.071 71.2486C236.987 74.7294 233.388 76.4699 228.761 76.4699C224.135 76.4699 220.536 74.7294 217.452 71.2486C214.367 67.7677 212.825 63.7067 212.825 58.4854C212.825 53.2641 214.367 49.2031 217.452 45.7223C220.536 42.2414 224.135 40.501 228.761 40.501C230.818 40.501 232.874 41.0811 234.93 42.2414C236.987 43.4017 238.529 44.562 239.557 46.3024L236.986 49.2031C234.93 46.3024 232.36 45.1421 228.761 45.1421C225.677 45.1421 222.593 46.3024 220.536 49.2031C217.966 51.5237 216.938 55.0046 216.938 59.0656C216.938 63.1266 217.966 66.6074 220.536 68.928C223.107 71.2486 225.677 72.989 228.761 72.989C232.36 72.989 234.93 71.8287 237.501 68.928C239.043 67.1876 240.071 64.867 240.071 61.9663H228.761V57.3251H243.669V59.6457ZM267.317 45.1421H253.437V56.1648H266.289V60.2258H253.437V71.2486H267.317V75.8897H249.324V41.0811H267.317V45.1421ZM284.281 75.8897H280.168V45.1421H271.429V41.0811H293.02V45.1421H284.281V75.8897ZM307.928 75.8897V41.0811H312.041V75.8897H307.928ZM329.519 75.8897H325.407V45.1421H316.667V41.0811H337.744V45.1421H329.005V75.8897H329.519ZM378.356 71.2486C375.271 74.7294 371.673 76.4699 367.046 76.4699C362.42 76.4699 358.821 74.7294 355.737 71.2486C352.652 67.7677 351.11 63.7067 351.11 58.4854C351.11 53.2641 352.652 49.2031 355.737 45.7223C358.821 42.2414 362.42 40.501 367.046 40.501C371.673 40.501 375.271 42.2414 378.356 45.7223C381.44 49.2031 382.983 53.2641 382.983 58.4854C382.983 63.7067 381.44 67.7677 378.356 71.2486ZM358.821 68.3478C360.878 70.6684 363.962 72.4088 367.046 72.4088C370.131 72.4088 373.215 71.2486 375.271 68.3478C377.328 66.0273 378.87 62.5464 378.87 58.4854C378.87 54.4244 377.842 50.9436 375.271 48.623C373.215 46.3024 370.131 44.562 367.046 44.562C363.962 44.562 360.878 45.7223 358.821 48.623C356.765 50.9436 355.223 54.4244 355.223 58.4854C355.223 62.5464 356.251 66.0273 358.821 68.3478ZM388.637 75.8897V41.0811H393.264L408.172 68.3478V41.0811H412.285V75.8897H408.172L392.236 47.4627V75.8897H388.637Z" fill="white" stroke="white" stroke-width="1.18519" stroke-miterlimit="10"/>
<path d="M350.082 126.943C337.745 126.943 327.977 137.385 327.977 151.889C327.977 165.812 337.745 176.835 350.082 176.835C362.42 176.835 372.187 166.392 372.187 151.889C372.187 136.805 362.42 126.943 350.082 126.943ZM350.082 166.392C343.399 166.392 337.745 160.011 337.745 151.309C337.745 142.606 343.399 136.225 350.082 136.225C356.765 136.225 362.42 142.026 362.42 151.309C362.42 160.011 356.765 166.392 350.082 166.392ZM302.274 126.943C289.936 126.943 280.169 137.385 280.169 151.889C280.169 165.812 289.936 176.835 302.274 176.835C314.611 176.835 324.379 166.392 324.379 151.889C324.379 136.805 314.611 126.943 302.274 126.943ZM302.274 166.392C295.591 166.392 289.936 160.011 289.936 151.309C289.936 142.606 295.591 136.225 302.274 136.225C308.957 136.225 314.611 142.026 314.611 151.309C314.611 160.011 308.957 166.392 302.274 166.392ZM245.212 134.484V144.927H267.317C266.803 150.728 264.747 155.37 262.176 158.27C259.092 161.751 253.951 165.812 245.212 165.812C231.332 165.812 221.051 153.629 221.051 137.965C221.051 122.301 231.846 110.118 245.212 110.118C252.409 110.118 258.064 113.599 262.176 117.66L268.859 110.118C263.204 104.317 256.007 99.6758 245.726 99.6758C227.219 99.6758 211.283 117.08 211.283 137.965C211.283 158.85 227.219 176.255 245.726 176.255C256.007 176.255 263.204 172.774 269.373 165.232C275.542 158.27 277.598 148.408 277.598 140.866C277.598 138.545 277.598 136.225 277.084 134.484H245.212ZM478.6 142.606C476.544 136.805 471.403 126.943 460.093 126.943C448.784 126.943 439.531 136.805 439.531 151.889C439.531 165.812 448.784 176.835 461.122 176.835C470.889 176.835 477.058 169.873 479.114 165.812L471.917 160.011C469.347 164.072 466.262 166.972 461.122 166.972C455.981 166.972 452.896 164.652 450.326 159.431L479.628 145.507L478.6 142.606ZM448.784 150.728C448.784 141.446 455.467 136.225 460.093 136.225C463.692 136.225 467.29 138.545 468.319 141.446L448.784 150.728ZM424.623 174.514H434.39V101.996H424.623V174.514ZM409.2 132.164C406.63 129.263 402.517 126.362 397.377 126.362C386.581 126.362 376.3 137.385 376.3 151.309C376.3 165.232 386.067 175.675 397.377 175.675C402.517 175.675 406.63 172.774 408.686 169.873H409.2V173.354C409.2 182.636 404.574 187.858 397.377 187.858C391.722 187.858 387.609 183.216 386.581 179.155L378.356 183.216C380.927 189.598 387.095 197.72 397.891 197.72C409.2 197.72 418.454 190.178 418.454 172.194V128.103H409.2V132.164ZM397.891 166.392C391.208 166.392 385.553 160.011 385.553 151.309C385.553 142.606 391.208 136.225 397.891 136.225C404.574 136.225 409.714 142.606 409.714 151.309C409.714 160.011 404.574 166.392 397.891 166.392ZM523.324 101.996H500.191V174.514H509.958V147.248H523.324C534.12 147.248 544.401 138.545 544.401 124.622C544.401 110.698 534.12 101.996 523.324 101.996ZM523.838 136.805H509.958V111.859H523.838C531.035 111.859 535.148 118.82 535.148 124.042C534.634 130.423 530.521 136.805 523.838 136.805ZM582.956 126.362C575.759 126.362 568.562 129.843 565.992 137.385L574.731 141.446C576.787 137.385 579.872 136.225 583.47 136.225C588.611 136.225 593.238 139.706 593.752 145.507V146.087C592.21 144.927 588.097 143.187 583.984 143.187C574.731 143.187 565.478 148.988 565.478 159.431C565.478 169.293 573.189 175.675 581.414 175.675C588.097 175.675 591.181 172.194 593.752 168.713H594.266V174.514H603.519V146.667C602.491 133.904 593.752 126.362 582.956 126.362ZM581.928 166.392C578.844 166.392 574.217 164.652 574.217 160.011C574.217 154.209 579.872 152.469 584.498 152.469C588.611 152.469 590.667 153.629 593.238 154.789C592.21 161.751 587.069 166.392 581.928 166.392ZM635.906 128.103L625.11 159.431H624.596L613.286 128.103H603.005L619.969 172.194L610.202 196.56H619.969L646.187 128.103H635.906ZM549.542 174.514H559.309V101.996H549.542V174.514Z" fill="white"/>
<path d="M53.4635 43.9819C51.9213 45.7224 51.4072 48.6231 51.4072 52.1039V180.316C51.4072 183.796 52.4354 186.697 53.9776 188.438L54.4917 189.018L118.236 117.08V115.92L53.4635 43.9819Z" fill="url(#paint0_linear_62_2540)"/>
<path d="M138.799 141.446L117.722 117.66V115.92L138.799 92.1338L139.313 92.7139L164.503 108.958C171.7 113.599 171.7 121.141 164.503 125.782L138.799 141.446Z" fill="url(#paint1_linear_62_2540)"/>
<path d="M139.313 140.866L117.722 116.5L53.4634 189.018C56.0337 191.918 59.6322 191.918 64.2589 189.598L139.313 140.866Z" fill="url(#paint2_linear_62_2540)"/>
<path d="M139.313 92.1337L64.2589 43.9818C59.6322 41.0811 56.0337 41.6612 53.4634 44.5619L117.722 116.5L139.313 92.1337Z" fill="url(#paint3_linear_62_2540)"/>
<path opacity="0.2" d="M138.799 140.286L64.2589 187.857C60.1463 190.758 56.5478 190.178 53.9775 187.857L53.4634 188.438L53.9775 189.018C56.5478 191.338 60.1463 191.918 64.2589 189.018L138.799 140.286Z" fill="black"/>
<path opacity="0.12" d="M53.4635 187.857C51.9213 186.117 51.4072 183.216 51.4072 179.735V180.316C51.4072 183.796 52.4354 186.697 53.9776 188.438V187.857H53.4635ZM164.503 124.042L138.799 140.286L139.313 140.866L164.503 124.622C168.101 122.301 169.643 119.4 169.643 116.5C169.643 119.4 167.587 121.721 164.503 124.042Z" fill="black"/>
<path opacity="0.25" d="M64.259 44.562L164.503 108.958C167.587 111.278 169.643 113.599 169.643 116.5C169.643 113.599 168.101 110.698 164.503 108.378L64.259 43.9819C57.062 39.3407 51.4072 42.8216 51.4072 52.1039V52.684C51.4072 43.9819 57.062 39.9209 64.259 44.562Z" fill="white"/>
</g>
<defs>
<linearGradient id="paint0_linear_62_2540" x1="112.068" y1="51.0017" x2="15.4103" y2="136.646" gradientUnits="userSpaceOnUse">
<stop stop-color="#00A0FF"/>
<stop offset="0.007" stop-color="#00A1FF"/>
<stop offset="0.26" stop-color="#00BEFF"/>
<stop offset="0.512" stop-color="#00D2FF"/>
<stop offset="0.76" stop-color="#00DFFF"/>
<stop offset="1" stop-color="#00E3FF"/>
</linearGradient>
<linearGradient id="paint1_linear_62_2540" x1="173.931" y1="116.506" x2="49.541" y2="116.506" gradientUnits="userSpaceOnUse">
<stop stop-color="#FFE000"/>
<stop offset="0.409" stop-color="#FFBD00"/>
<stop offset="0.775" stop-color="#FFA500"/>
<stop offset="1" stop-color="#FF9C00"/>
</linearGradient>
<linearGradient id="paint2_linear_62_2540" x1="127.628" y1="129.82" x2="-3.44133" y2="245.962" gradientUnits="userSpaceOnUse">
<stop stop-color="#FF3A44"/>
<stop offset="1" stop-color="#C31162"/>
</linearGradient>
<linearGradient id="paint3_linear_62_2540" x1="37.5118" y1="1.4921" x2="96.0433" y2="53.3575" gradientUnits="userSpaceOnUse">
<stop stop-color="#32A071"/>
<stop offset="0.069" stop-color="#2DA771"/>
<stop offset="0.476" stop-color="#15CF74"/>
<stop offset="0.801" stop-color="#06E775"/>
<stop offset="1" stop-color="#00F076"/>
</linearGradient>
<clipPath id="clip0_62_2540">
<path d="M0 20C0 8.9543 8.95431 0 20 0L673.995 0C685.041 0 693.995 8.95431 693.995 20V213C693.995 224.046 685.041 233 673.995 233H20C8.95428 233 0 224.046 0 213L0 20Z" fill="white"/>
</clipPath>
</defs>
</svg>
