<svg xmlns="http://www.w3.org/2000/svg" width="28.453" height="13.171" viewBox="0 0 28.453 13.171">
  <g id="Group_15825" data-name="Group 15825" transform="translate(-47.268 -1763.863)">
    <path id="Path_46661" data-name="Path 46661" d="M198.008,206.622h-.66a5.891,5.891,0,0,0-10.147,0H174.043A2.046,2.046,0,0,0,172,208.666v5.786a2.046,2.046,0,0,0,2.044,2.044h23.965a2.047,2.047,0,0,0,2.044-2.044v-5.786a2.047,2.047,0,0,0-2.044-2.044Zm-5.734-2.428a5.455,5.455,0,1,1-5.38,4.689,5.341,5.341,0,0,1,.643-1.912,5.427,5.427,0,0,1,4.737-2.777Zm7.309,10.258a1.577,1.577,0,0,1-1.575,1.575H174.043a1.577,1.577,0,0,1-1.575-1.575v-5.786a1.577,1.577,0,0,1,1.575-1.575h12.9c-.03.062-.051.128-.079.19-.037.085-.073.17-.106.257-.052.138-.1.278-.14.42-.026.086-.052.171-.074.258-.038.156-.066.314-.092.472-.012.076-.029.15-.038.226a5.9,5.9,0,1,0,11.714,0c-.009-.077-.026-.152-.038-.228-.026-.158-.053-.315-.092-.47-.022-.088-.049-.174-.075-.261-.042-.14-.086-.279-.138-.416-.033-.088-.07-.174-.107-.261-.027-.062-.048-.128-.078-.189h.4a1.577,1.577,0,0,1,1.575,1.575Z" transform="translate(-124.531 1560.338)" fill="#a9a9a9" stroke="#a9a9a9" stroke-width="0.4"/>
    <path id="Path_46662" data-name="Path 46662" d="M396.046,235.145a3.934,3.934,0,1,0-3.934-3.934A3.938,3.938,0,0,0,396.046,235.145Zm0-7.4a3.465,3.465,0,1,1-3.465,3.465A3.469,3.469,0,0,1,396.046,227.747Z" transform="translate(-328.302 1538.756)" fill="#a9a9a9" stroke="#a9a9a9" stroke-width="0.4"/>
    <path id="Path_46663" data-name="Path 46663" d="M201.864,279.127h1.849a.234.234,0,0,0,0-.469h-1.849a.234.234,0,0,0,0,.469Z" transform="translate(-149.53 1491.677)" fill="#a9a9a9" stroke="#a9a9a9" stroke-width="0.4"/>
    <path id="Path_46664" data-name="Path 46664" d="M207.055,312.28h-5.317c-.06,0-.108.1-.108.234s.049.234.108.234h5.317c.06,0,.108-.1.108-.234S207.115,312.28,207.055,312.28Z" transform="translate(-149.53 1460.872)" fill="#a9a9a9" stroke="#a9a9a9" stroke-width="0.4"/>
  </g>
</svg>
