<svg xmlns="http://www.w3.org/2000/svg" width="12.597" height="18.595" viewBox="0 0 12.597 18.595">
  <path id="Path_46700" data-name="Path 46700" d="M166.585,0a6.292,6.292,0,0,1,6.321,6.275c0,3.045-1.661,4.845-3.138,7.2l-3.184,5.122L163.4,13.473c-1.476-2.353-3.091-4.153-3.091-7.2A6.282,6.282,0,0,1,166.585,0Zm0,.877a5.376,5.376,0,0,0-5.4,5.4c0,2.769,1.615,4.568,2.953,6.737l2.445,3.968,2.445-3.968c1.384-2.169,3-3.968,3-6.737a5.415,5.415,0,0,0-5.445-5.4Z" transform="translate(-160.31)" fill="#d9981c"/>
</svg>
