<svg xmlns="http://www.w3.org/2000/svg" width="15.063" height="9.821" viewBox="0 0 15.063 9.821">
  <path id="Path_46698" data-name="Path 46698" d="M97.785,106.57h-12.5A1.281,1.281,0,0,0,84,107.85v7.262a1.281,1.281,0,0,0,1.28,1.28h12.5a1.281,1.281,0,0,0,1.28-1.28V107.85A1.281,1.281,0,0,0,97.785,106.57ZM84.844,107.8l4.25,2.99-4.252,4.247V107.85a.445.445,0,0,1,0-.046Zm7.356,3.208a1.163,1.163,0,0,1-1.335,0l-5.118-3.6H97.318Zm-2.408.273.589.415a2.006,2.006,0,0,0,2.3,0l.589-.415,4.27,4.265H85.522Zm4.179-.491,4.25-2.99a.447.447,0,0,1,0,.046v7.192Z" transform="translate(-84.001 -106.57)" fill="#d9981c"/>
</svg>
