<svg xmlns="http://www.w3.org/2000/svg" width="17.807" height="24.194" viewBox="0 0 17.807 24.194">
  <g id="noun-teddy-bear-1041229" transform="translate(-192.546 -66.076)">
    <path id="Path_46665" data-name="Path 46665" d="M209.5,84.7a2.828,2.828,0,0,0-1.518-.791l-.728-1.961a3.123,3.123,0,0,0,.538.063,2.578,2.578,0,0,0,2.277-1.392,2.517,2.517,0,0,0-.6-3.068L206.277,74.8a5.344,5.344,0,0,0,.38-4.3,2.612,2.612,0,0,0,.822-1.866,2.559,2.559,0,0,0-4.522-1.645,5.018,5.018,0,0,0-2.973.032,2.519,2.519,0,0,0-1.992-.949,2.551,2.551,0,0,0-2.562,2.562,2.48,2.48,0,0,0,.886,1.929,5.017,5.017,0,0,0-.253,1.676,5.269,5.269,0,0,0,.632,2.53l-3.289,2.815a2.508,2.508,0,0,0-.569,3.068,2.578,2.578,0,0,0,2.277,1.392,3.1,3.1,0,0,0,.538-.063l-.727,1.929a2.827,2.827,0,0,0-1.518.791,2.94,2.94,0,0,0,0,4.143l.569.569a2.925,2.925,0,0,0,2.056.854,2.876,2.876,0,0,0,2.878-2.656v-.095c0-.98.791-2.056,2.53-2.056a2.206,2.206,0,0,1,2.5,2.056v.032a2.7,2.7,0,0,0,.854,1.866,2.9,2.9,0,0,0,4.111,0l.569-.569A2.911,2.911,0,0,0,209.5,84.7Zm-11.512-17.71a1.617,1.617,0,0,1,1.392.791l.19.348.379-.126a4.545,4.545,0,0,1,3.036-.032l.348.126.19-.316a1.61,1.61,0,1,1,2.277,2.182l-.316.221.158.348a4.47,4.47,0,0,1-4.143,6.2,4.508,4.508,0,0,1-4.491-4.491,4.118,4.118,0,0,1,.316-1.645l.158-.379L197.168,70a1.6,1.6,0,0,1-.759-1.36,1.581,1.581,0,0,1,1.581-1.644Zm-.6,21.727a1.985,1.985,0,0,1-2.783,0l-.569-.569a1.985,1.985,0,0,1,0-2.783,1.962,1.962,0,0,1,1.392-.569,2.046,2.046,0,0,1,1.392.569l.569.569a1.929,1.929,0,0,1,0,2.783Zm4.048-4.238a3.445,3.445,0,0,0-2.91,1.36,2.714,2.714,0,0,0-.443-.569l-.569-.569a2.934,2.934,0,0,0-1.613-.822l.886-2.309,1.486-.538a.47.47,0,0,0-.316-.886L195.524,81a1.616,1.616,0,0,1-1.518-2.751l3.163-2.72a5.418,5.418,0,0,0,8.571.032l3.1,2.688a1.647,1.647,0,0,1,.379,1.929,1.6,1.6,0,0,1-1.834.822l-2.467-.854a.47.47,0,1,0-.316.886l1.486.538.886,2.309a2.933,2.933,0,0,0-1.613.822l-.569.569a3.472,3.472,0,0,0-.443.569,3.364,3.364,0,0,0-2.91-1.36Zm7.4,3.669-.569.569a1.968,1.968,0,0,1-2.783-2.783l.569-.569a1.962,1.962,0,0,1,1.392-.569,2.046,2.046,0,0,1,1.392.569,1.929,1.929,0,0,1,0,2.783Z" fill="#a9a9a9"/>
    <path id="Path_46666" data-name="Path 46666" d="M327.836,182.421l.7.727a.575.575,0,0,0,.854,0l.664-.727a.588.588,0,0,0-.443-.98h-1.328a.588.588,0,0,0-.443.98Z" transform="translate(-127.505 -108.85)" fill="#a9a9a9"/>
    <path id="Path_46667" data-name="Path 46667" d="M368.18,151.61a.411.411,0,1,1-.411-.411.411.411,0,0,1,.411.411" transform="translate(-164.939 -80.316)" fill="#a9a9a9"/>
    <path id="Path_46668" data-name="Path 46668" d="M318.9,151.61a.411.411,0,1,1-.411-.411.411.411,0,0,1,.411.411" transform="translate(-118.443 -80.316)" fill="#a9a9a9"/>
  </g>
</svg>
