<svg xmlns="http://www.w3.org/2000/svg" width="23.262" height="14.086" viewBox="0 0 23.262 14.086">
  <g id="noun-games-3323124" transform="translate(-86.33 -120.17)">
    <path id="Path_46670" data-name="Path 46670" d="M92.113,120.17h11.669a3.4,3.4,0,0,1,2.365,1,11.007,11.007,0,0,1,2.6,4.832,20.079,20.079,0,0,1,.848,5.346,3.641,3.641,0,0,1-.514,2.262l-.051.026c-.026.026-.051.077-.1.1a2.745,2.745,0,0,1-1.671.488,2.47,2.47,0,0,1-1.7-.463l-.1-.1-3.059-3.6a.683.683,0,0,0-.154-.129.96.96,0,0,0-.308-.051H93.964a.955.955,0,0,0-.308.051.376.376,0,0,0-.154.129l-3.059,3.624c-.026.026-.051.077-.1.1a2.657,2.657,0,0,1-1.7.463,2.927,2.927,0,0,1-1.671-.488l-.129-.129a3.7,3.7,0,0,1-.514-2.262,20.076,20.076,0,0,1,.848-5.346,11.007,11.007,0,0,1,2.6-4.832A3.321,3.321,0,0,1,92.113,120.17Zm10.256,5.526a.823.823,0,1,1-.823.823A.828.828,0,0,1,102.369,125.7Zm1.568-1.568a.823.823,0,1,1-.823.823A.828.828,0,0,1,103.937,124.128Zm-3.136,0a.823.823,0,1,1-.823.823A.846.846,0,0,1,100.8,124.128Zm1.568-1.568a.823.823,0,1,1-.823.823A.828.828,0,0,1,102.369,122.56Zm-7.145,1.8a.578.578,0,0,1,.026,1.157l-1.285.026.026,1.285a.578.578,0,1,1-1.157.026l-.026-1.285-1.285.026a.578.578,0,0,1-.026-1.157l1.285-.026-.026-1.285a.578.578,0,1,1,1.157-.026l.026,1.285Zm1.645-3.007H92.113a2.3,2.3,0,0,0-1.568.694,9.578,9.578,0,0,0-2.262,4.293,19.522,19.522,0,0,0-.8,5.012,3.223,3.223,0,0,0,.206,1.491l.025.026a1.959,1.959,0,0,0,.951.231,1.326,1.326,0,0,0,.874-.154L92.6,129.32a1.439,1.439,0,0,1,.617-.437,1.825,1.825,0,0,1,.745-.129h7.968a2.389,2.389,0,0,1,.745.129,1.7,1.7,0,0,1,.617.437l3.059,3.624a2.274,2.274,0,0,0,1.825-.077l.026-.026a3.223,3.223,0,0,0,.206-1.491,18.317,18.317,0,0,0-.8-5.012,9.84,9.84,0,0,0-2.262-4.293,2.3,2.3,0,0,0-1.568-.694Z" fill="#a9a9a9"/>
  </g>
</svg>
