<svg xmlns="http://www.w3.org/2000/svg" width="22.506" height="22.506" viewBox="0 0 22.506 22.506">
  <g id="noun-home-appliances-4976489" transform="translate(-105.539 -35.542)">
    <path id="Path_46659" data-name="Path 46659" d="M126.784,41.5V37.763a2.42,2.42,0,0,0-2.575-2.221H109.375a2.42,2.42,0,0,0-2.575,2.221V41.5a1.308,1.308,0,0,0-1.261,1.229v11a1.1,1.1,0,0,0,1.1,1.1h.305v2.035a1.183,1.183,0,0,0,2.365,0V54.83h1.2v.765a1.183,1.183,0,1,0,2.365,0V54.83h7.849v.765a1.183,1.183,0,1,0,2.365,0V54.83h1.2v2.035a1.183,1.183,0,0,0,2.365,0V54.83h.305a1.1,1.1,0,0,0,1.1-1.1v-11a1.308,1.308,0,0,0-1.261-1.228Zm-17.409-5.232h14.834a1.7,1.7,0,0,1,1.849,1.495v3.73h-1.932a1.327,1.327,0,0,0-1.4,1.235v4.586H110.859V42.728a1.327,1.327,0,0,0-1.4-1.235h-1.932v-3.73a1.7,1.7,0,0,1,1.849-1.495Zm13.713,11.771h.932a.336.336,0,0,1,.336.336v2.283a.336.336,0,0,1-.336.336H109.564a.336.336,0,0,1-.336-.336V48.375a.336.336,0,0,1,.336-.336h13.524ZM108.58,56.865a.457.457,0,1,1-.913,0V54.829h.913Zm3.561-1.271a.457.457,0,1,1-.913,0v-.765h.913Zm10.214,0a.457.457,0,1,1-.913,0v-.765h.913Zm3.561,1.271a.457.457,0,1,1-.913,0V54.829h.913v2.035Zm1.4-3.133a.372.372,0,0,1-.371.371H106.636a.372.372,0,0,1-.371-.371v-11c0-.276.309-.509.675-.509h2.518c.366,0,.675.233.675.509v4.586h-.569a1.063,1.063,0,0,0-1.062,1.062v2.283a1.063,1.063,0,0,0,1.062,1.062H124.02a1.063,1.063,0,0,0,1.062-1.062V48.375a1.063,1.063,0,0,0-1.062-1.062h-.569V42.727c0-.276.309-.509.675-.509h2.518c.366,0,.675.233.675.509ZM111.555,42.884a.411.411,0,0,1,.014.123l-.065,2.849a1.182,1.182,0,0,0,1.167,1.206,1.2,1.2,0,0,0,.36-.056l2.669-.833a.424.424,0,0,1,.173-.019l2.677.231a1.177,1.177,0,0,0,1.249-1.43l-.651-2.9a.4.4,0,0,1-.011-.1l.026-2.585a1.176,1.176,0,0,0-1.5-1.142l-2.686.778a.413.413,0,0,1-.153.017l-2.715-.168a1.177,1.177,0,0,0-1.212,1.469Zm.13-3.14a.427.427,0,0,1,.343-.164h.033l2.716.168a1.161,1.161,0,0,0,.4-.044l2.686-.778a.451.451,0,0,1,.576.437l-.026,2.585a1.116,1.116,0,0,0,.029.269l.651,2.9a.451.451,0,0,1-.478.548l-2.677-.231a1.142,1.142,0,0,0-.451.049l-2.669.832a.451.451,0,0,1-.585-.441l.065-2.849a1.151,1.151,0,0,0-.037-.322l-.662-2.558a.428.428,0,0,1,.089-.4Z" fill="#A9A9A9"/>
  </g>
</svg>
