<svg xmlns="http://www.w3.org/2000/svg" width="21.652" height="21.652" viewBox="0 0 21.652 21.652">
  <g id="noun-sale-1570935" transform="translate(0)">
    <path id="Path_52180" data-name="Path 52180" d="M114.428,33.6a2.691,2.691,0,0,0-1.507.607,4.9,4.9,0,0,1-1.061.623,4.952,4.952,0,0,1-1.238-.008,2.682,2.682,0,0,0-1.607.223,2.715,2.715,0,0,0-1,1.292,4.851,4.851,0,0,1-.615,1.069,4.886,4.886,0,0,1-1.069.607,2.679,2.679,0,0,0-1.276,1,2.707,2.707,0,0,0-.223,1.615,4.752,4.752,0,0,1,0,1.223,4.905,4.905,0,0,1-.623,1.069,2.174,2.174,0,0,0,0,3.014A4.9,4.9,0,0,1,104.832,47a4.875,4.875,0,0,1,0,1.238,2.163,2.163,0,0,0,1.5,2.607,4.851,4.851,0,0,1,1.069.615,4.851,4.851,0,0,1,.615,1.069,2.163,2.163,0,0,0,2.607,1.5,4.875,4.875,0,0,1,1.238,0,4.886,4.886,0,0,1,1.061.623,2.173,2.173,0,0,0,3.014,0A4.922,4.922,0,0,1,117,54.024a4.752,4.752,0,0,1,1.223,0,2.707,2.707,0,0,0,1.615-.223,2.678,2.678,0,0,0,1-1.276,4.887,4.887,0,0,1,.607-1.069,4.855,4.855,0,0,1,1.069-.615,2.715,2.715,0,0,0,1.292-1,2.682,2.682,0,0,0,.223-1.607A4.953,4.953,0,0,1,124.024,47a4.789,4.789,0,0,1,.615-1.061,2.154,2.154,0,0,0,0-3.014,4.809,4.809,0,0,1-.615-1.069,4.82,4.82,0,0,1,.008-1.223,2.159,2.159,0,0,0-1.515-2.614,4.888,4.888,0,0,1-1.069-.607,4.887,4.887,0,0,1-.607-1.069,2.159,2.159,0,0,0-2.614-1.515,4.828,4.828,0,0,1-1.223.008,4.906,4.906,0,0,1-1.069-.623A2.691,2.691,0,0,0,114.428,33.6Zm0,.984a2.207,2.207,0,0,1,.953.446,3.2,3.2,0,0,0,2.914.776,2.223,2.223,0,0,1,1.054.092,2.239,2.239,0,0,1,.607.869,4.556,4.556,0,0,0,.8,1.33,4.593,4.593,0,0,0,1.338.8,2.156,2.156,0,0,1,.854.607,2.2,2.2,0,0,1,.1,1.054,4.569,4.569,0,0,0,.023,1.553,4.584,4.584,0,0,0,.753,1.361,2.209,2.209,0,0,1,.446.953,2.227,2.227,0,0,1-.446.961,4.538,4.538,0,0,0-.753,1.353,4.6,4.6,0,0,0-.023,1.561,2.167,2.167,0,0,1-.1,1.046,2.155,2.155,0,0,1-.854.607,3.2,3.2,0,0,0-2.137,2.13,1.252,1.252,0,0,1-1.661.961,3.232,3.232,0,0,0-2.914.784,1.264,1.264,0,0,1-1.915,0,4.537,4.537,0,0,0-1.353-.753,4.617,4.617,0,0,0-1.561-.031,2.19,2.19,0,0,1-1.046-.092,2.239,2.239,0,0,1-.607-.869,3.211,3.211,0,0,0-2.13-2.13,2.2,2.2,0,0,1-.861-.607,2.165,2.165,0,0,1-.1-1.046,4.617,4.617,0,0,0-.031-1.561,4.539,4.539,0,0,0-.753-1.353,2.191,2.191,0,0,1-.438-.961,2.168,2.168,0,0,1,.438-.953,4.581,4.581,0,0,0,.753-1.361,4.573,4.573,0,0,0,.031-1.553,2.2,2.2,0,0,1,.1-1.054,2.2,2.2,0,0,1,.861-.607,4.56,4.56,0,0,0,1.33-.8,4.559,4.559,0,0,0,.8-1.33,2.239,2.239,0,0,1,.607-.869,2.19,2.19,0,0,1,1.046-.092,4.608,4.608,0,0,0,1.561-.023,4.539,4.539,0,0,0,1.353-.753A2.227,2.227,0,0,1,114.428,34.586Zm-2.953,4.429a2.461,2.461,0,1,0,2.461,2.461,2.468,2.468,0,0,0-2.461-2.461Zm6.828.977a.492.492,0,0,0-.284.146l-7.874,7.874h0a.492.492,0,1,0,.692.7l7.874-7.874h0a.492.492,0,0,0-.408-.846ZM111.475,40A1.476,1.476,0,1,1,110,41.476,1.469,1.469,0,0,1,111.475,40Zm5.905,4.921a2.461,2.461,0,1,0,2.461,2.461A2.468,2.468,0,0,0,117.381,44.92Zm0,.984a1.476,1.476,0,1,1-1.476,1.476A1.469,1.469,0,0,1,117.381,45.9Z" transform="translate(-103.602 -33.602)" fill="#333"/>
  </g>
</svg>
