<svg xmlns="http://www.w3.org/2000/svg" width="13.501" height="28.634" viewBox="0 0 13.501 28.634">
  <path id="Path_46660" data-name="Path 46660" d="M265.34,30.926H263.4V28.154a.469.469,0,0,0-.469-.469h-.446V23.676a.469.469,0,0,0-.469-.469h-3.965a.469.469,0,0,0-.469.469v4.009h-.446a.469.469,0,0,0-.469.469v2.772h-1.939a1.447,1.447,0,0,0-1.445,1.445V50.4a1.447,1.447,0,0,0,1.445,1.445H265.34a1.447,1.447,0,0,0,1.445-1.445V32.371a1.447,1.447,0,0,0-1.445-1.446Zm-6.819-6.781h3.026v3.539H260.5v-1.77a.469.469,0,0,0-.938,0v1.77h-1.045Zm-.915,4.477h4.856v2.3h-4.856Zm8.241,18.569h-7.776V35.577h7.776Zm0-12.553H257.6a.469.469,0,0,0-.469.469V47.661a.469.469,0,0,0,.469.469h8.245V50.4a.508.508,0,0,1-.508.508H254.729a.509.509,0,0,1-.508-.508V32.371a.508.508,0,0,1,.508-.508h10.61a.508.508,0,0,1,.508.508v2.267Z" transform="translate(-253.284 -23.207)" fill="#a9a9a9"/>
</svg>
