<svg xmlns="http://www.w3.org/2000/svg" width="23.912" height="20.307" viewBox="0 0 23.912 20.307">
  <path id="Path_46658" data-name="Path 46658" d="M98.938,49.388a9.377,9.377,0,0,0,1.955.183,9.554,9.554,0,0,0,1.948-.179,8.355,8.355,0,0,1-.754,1.467,4.91,4.91,0,0,1-1.2,1.3,4.921,4.921,0,0,1-1.2-1.3,8.457,8.457,0,0,1-.755-1.471Zm-.766-.006a8.569,8.569,0,0,0,.913,1.867,5.25,5.25,0,0,0,1.625,1.731.359.359,0,0,0,.362,0,5.272,5.272,0,0,0,1.624-1.731,8.55,8.55,0,0,0,.912-1.866l1.994.635a5.977,5.977,0,0,1,2.506,1.674l3.341,3.081-2.4,2.928-1.562-1.437V54.383a.361.361,0,1,0-.72,0V67.129H95.01V54.381a.36.36,0,1,0-.72,0v1.883L92.729,57.7l-2.4-2.928,3.341-3.08a5.982,5.982,0,0,1,2.5-1.677Zm.241-.819a.439.439,0,0,0-.1.015l-2.356.751a6.783,6.783,0,0,0-2.776,1.832l-3.59,3.31a.361.361,0,0,0-.034.5l2.852,3.486a.362.362,0,0,0,.524.038l1.354-1.247V67.489a.362.362,0,0,0,.36.362h12.482a.362.362,0,0,0,.361-.361V57.245l1.354,1.247a.361.361,0,0,0,.524-.037l2.852-3.487a.361.361,0,0,0-.034-.493L108.6,51.163a6.788,6.788,0,0,0-2.775-1.833l-2.357-.748a.368.368,0,0,0-.2-.007,10.092,10.092,0,0,1-4.741,0,.388.388,0,0,0-.107-.011Z" transform="translate(-88.934 -48.044)" fill="#a9a9a9" stroke="#a9a9a9" stroke-width="1"/>
</svg>
