<svg xmlns="http://www.w3.org/2000/svg" width="14.026" height="14.028" viewBox="0 0 14.026 14.028">
  <path id="Path_46697" data-name="Path 46697" d="M175.633,115.129c-.07,0-.141,0-.213-.007a7.631,7.631,0,0,1-2.8-.824,15.014,15.014,0,0,1-4.934-3.863h0a13.476,13.476,0,0,1-2.384-3.985,5.483,5.483,0,0,1-.406-2.342,2.111,2.111,0,0,1,.684-1.461l1.071-1.072a1.454,1.454,0,0,1,2.14-.007c.2.186.4.388.587.583.095.1.191.2.289.293l.848.848a1.471,1.471,0,0,1,.006,2.183c-.188.188-.369.364-.55.54-.154.149-.308.3-.462.451a5.874,5.874,0,0,0,.864,1.33,10.585,10.585,0,0,0,2.609,2.367l.02.013a3.308,3.308,0,0,0,.407.227l.123.062,1-1a1.453,1.453,0,0,1,2.147,0l1.738,1.739a1.452,1.452,0,0,1,0,2.168c-.114.114-.228.226-.342.337-.226.221-.439.43-.645.649a2.285,2.285,0,0,1-1.8.776Zm-7.3-5.239a14.169,14.169,0,0,0,4.652,3.644,6.828,6.828,0,0,0,2.493.742,1.5,1.5,0,0,0,1.327-.492c.228-.243.458-.468.68-.686.111-.109.224-.219.335-.331a.607.607,0,0,0,0-.969l-1.738-1.738a.618.618,0,0,0-.948,0l-1.081,1.081a.629.629,0,0,1-.786.143c-.087-.047-.163-.085-.239-.123a4.1,4.1,0,0,1-.5-.283,11.415,11.415,0,0,1-2.808-2.544,6.422,6.422,0,0,1-1.04-1.657.626.626,0,0,1,.169-.748c.178-.178.356-.35.534-.523s.357-.346.535-.524a.626.626,0,0,0-.006-1l-.842-.842c-.1-.1-.2-.2-.3-.3-.192-.2-.372-.381-.562-.557a.617.617,0,0,0-.959-.011l-1.081,1.081a1.284,1.284,0,0,0-.428.906,4.654,4.654,0,0,0,.356,2,12.646,12.646,0,0,0,2.238,3.731Z" transform="translate(-164.877 -101.101)" fill="#d9981c"/>
</svg>
