<svg xmlns="http://www.w3.org/2000/svg" xmlns:xlink="http://www.w3.org/1999/xlink" version="1.1" width="64" height="64" viewBox="0 0 256 256" xml:space="preserve">

<defs>
</defs>
<g style="stroke: none; stroke-width: 0; stroke-dasharray: none; stroke-linecap: butt; stroke-linejoin: miter; stroke-miterlimit: 10; fill: none; fill-rule: nonzero; opacity: 1;" transform="translate(1.4065934065934016 1.4065934065934016) scale(2.81 2.81)" >
	<path d="M 52.229 71.104 H 37.771 V 56.646 h 14.457 V 71.104 z M 40.771 68.104 h 8.457 v -8.457 h -8.457 V 68.104 z" style="stroke: none; stroke-width: 1; stroke-dasharray: none; stroke-linecap: butt; stroke-linejoin: miter; stroke-miterlimit: 10; fill: rgb(0,0,0); fill-rule: nonzero; opacity: 1;" transform=" matrix(1 0 0 1 0 0) " stroke-linecap="round" />
	<path d="M 73.158 71.104 H 58.702 V 56.646 h 14.456 V 71.104 z M 61.702 68.104 h 8.456 v -8.457 h -8.456 V 68.104 z" style="stroke: none; stroke-width: 1; stroke-dasharray: none; stroke-linecap: butt; stroke-linejoin: miter; stroke-miterlimit: 10; fill: rgb(0,0,0); fill-rule: nonzero; opacity: 1;" transform=" matrix(1 0 0 1 0 0) " stroke-linecap="round" />
	<path d="M 31.298 71.104 H 16.841 V 56.646 h 14.457 V 71.104 z M 19.841 68.104 h 8.457 v -8.457 h -8.457 V 68.104 z" style="stroke: none; stroke-width: 1; stroke-dasharray: none; stroke-linecap: butt; stroke-linejoin: miter; stroke-miterlimit: 10; fill: rgb(0,0,0); fill-rule: nonzero; opacity: 1;" transform=" matrix(1 0 0 1 0 0) " stroke-linecap="round" />
	<path d="M 83.651 85.321 V 31.954 l -4.327 2.34 L 77.152 1.679 h -12.6 l -2.803 42.119 l -2.866 1.55 V 31.954 L 34.116 45.348 V 31.954 L 6.349 46.97 v 38.352 H 0 v 3 h 90 v -3 H 83.651 z M 74.346 4.679 l 0.317 4.757 h -7.619 l 0.316 -4.757 H 74.346 z M 66.843 12.436 h 8.019 l 1.559 23.427 l -11.552 6.247 L 66.843 12.436 z M 9.349 48.759 l 21.768 -11.772 v 13.394 l 24.768 -13.394 v 13.394 l 24.768 -13.394 v 48.334 H 9.349 V 48.759 z" style="stroke: none; stroke-width: 1; stroke-dasharray: none; stroke-linecap: butt; stroke-linejoin: miter; stroke-miterlimit: 10; fill: rgb(0,0,0); fill-rule: nonzero; opacity: 1;" transform=" matrix(1 0 0 1 0 0) " stroke-linecap="round" />
</g>
</svg>